<?xml version="1.0" encoding="utf-8"?>
<!-- Generator: Adobe Illustrator 18.0.0, SVG Export Plug-In . SVG Version: 6.00 Build 0)  -->
<!DOCTYPE svg PUBLIC "-//W3C//DTD SVG 1.1//EN" "http://www.w3.org/Graphics/SVG/1.1/DTD/svg11.dtd">
<svg version="1.1" id="Слой_1" xmlns="http://www.w3.org/2000/svg" xmlns:xlink="http://www.w3.org/1999/xlink" x="0px" y="0px"
	 viewBox="0 0 43 22" enable-background="new 0 0 43 22" xml:space="preserve">
<path fill="#9AA6AF" d="M37.6,19.9c0,1.4,1,2.1,2.2,2.1c1.8,0,3.2-1.6,3.2-3.2c0-1.3-0.7-2.2-2.2-2.2C38.9,16.6,37.6,18.2,37.6,19.9
	L37.6,19.9z M10.5,11.3c-0.4,2-0.7,2.7-1.4,4.2c-0.7,1.4-1.9,3.1-3.4,3.1c-1.4,0-1.8-1-1.8-2.4c0-3.2,2.8-7.9,5.7-7.9
	c0.7,0,1.2,0.2,1.5,0.5L10.5,11.3z M17.9,9.1C18.3,8.9,18.7,8.8,19,9c0.3,0.2,0.3,0.7,0.1,1.7l-1.7,8c-0.1,0.6-0.2,1-0.2,1.4
	c0,1,0.7,2,2,2c2.1,0,4-1.5,5.3-3.4l-0.7-0.7c0,0-1.1,1.1-2,1.1c-0.4,0-0.6-0.2-0.5-0.9l1.7-7.2c0.2-0.9,0.4-1.6,0.4-2.1
	c0-0.5-0.2-2-2-2c-1.4,0-2.7,0.6-3.8,2.2L17.9,9.1z M20.1,2.3C20,3.7,21,4.8,22.3,4.8c1.4,0,2.4-1,2.5-2.3C24.9,1.2,24,0,22.7,0
	C21.3,0,20.2,1,20.1,2.3L20.1,2.3z M36.7,18.5c-0.4,0.8-2.5,3.5-6.1,3.5c-3.4,0-5.1-2.4-5.1-5.6c0-2.7,1.3-5.7,3.4-7.5
	c2-1.7,3.7-2.2,5.5-2.2c2.7,0,3.8,1.5,3.8,3c0,1.2-0.8,2.7-2.5,2.7c-0.9,0-1.7-0.5-2-1.5c0.4-0.4,0.6-0.9,0.6-1.5c0-0.5-0.4-1-1.1-1
	c-1.9,0-3.9,2.4-3.9,6.4c0,2.2,1.1,4,3.3,4c1.1,0,2.3-0.2,3.5-1.1L36.7,18.5z M15.6,17.9c0,0-1,1.1-2,1.1c-0.4,0-0.6-0.4-0.5-1
	l2.3-10.4c-0.3-0.2-2.2-0.8-4.6-0.8c-2.7,0-5.3,0.8-7.6,3.4C0.7,12.8,0,15.9,0,17.7C0,19.9,1,22,3.3,22c2.3,0,5.1-2,6.9-6.7l0.1,0
	c0,0-1.3,3.2-1.3,4.7c0,0.9,0.2,1.9,1.7,1.9c2,0,4.3-1.5,5.6-3.4L15.6,17.9z"/>
</svg>
