<?xml version="1.0" encoding="utf-8"?>
<!-- Generator: Adobe Illustrator 18.0.0, SVG Export Plug-In . SVG Version: 6.00 Build 0)  -->
<!DOCTYPE svg PUBLIC "-//W3C//DTD SVG 1.1//EN" "http://www.w3.org/Graphics/SVG/1.1/DTD/svg11.dtd">
<svg version="1.1" id="Layer_1" xmlns="http://www.w3.org/2000/svg" xmlns:xlink="http://www.w3.org/1999/xlink" x="0px" y="0px"
	 viewBox="0 0 164.6 55.6" enable-background="new 0 0 164.6 55.6" xml:space="preserve">
<g>
	<g>
		<linearGradient id="SVGID_1_" gradientUnits="userSpaceOnUse" x1="0.3095" y1="19.5192" x2="163.1584" y2="19.5192">
			<stop  offset="0" style="stop-color:#F2AC21"/>
			<stop  offset="0.25" style="stop-color:#EEC125"/>
			<stop  offset="0.3787" style="stop-color:#EFC227"/>
			<stop  offset="0.4251" style="stop-color:#F1C62E"/>
			<stop  offset="0.4581" style="stop-color:#F5CC39"/>
			<stop  offset="0.4847" style="stop-color:#FAD54A"/>
			<stop  offset="0.5" style="stop-color:#FFDC58"/>
			<stop  offset="0.5" style="stop-color:#FEDA56"/>
			<stop  offset="0.5" style="stop-color:#FCD54F"/>
			<stop  offset="0.5" style="stop-color:#F8CB44"/>
			<stop  offset="0.5" style="stop-color:#F5C239"/>
			<stop  offset="0.5205" style="stop-color:#F0B425"/>
			<stop  offset="0.5465" style="stop-color:#EDA814"/>
			<stop  offset="0.5788" style="stop-color:#EA9F09"/>
			<stop  offset="0.6241" style="stop-color:#E89A02"/>
			<stop  offset="0.75" style="stop-color:#E89900"/>
			<stop  offset="1" style="stop-color:#C17F00"/>
		</linearGradient>
		<path fill="url(#SVGID_1_)" d="M71.5,15.5c0.3-0.6-0.1-1.1-0.7-1.1H1.2c-0.6,0-1,0.5-0.8,1.1l1.7,5c0.2,0.6,0.9,1.1,1.5,1.1
			l62.7,3c0.6,0,1.4-0.4,1.6-1L71.5,15.5z"/>
	</g>
	<g>
		<linearGradient id="SVGID_2_" gradientUnits="userSpaceOnUse" x1="0.2384" y1="43.2357" x2="163.1031" y2="43.2357">
			<stop  offset="0" style="stop-color:#F2AC21"/>
			<stop  offset="0.25" style="stop-color:#EEC125"/>
			<stop  offset="0.3787" style="stop-color:#EFC227"/>
			<stop  offset="0.4251" style="stop-color:#F1C62E"/>
			<stop  offset="0.4581" style="stop-color:#F5CC39"/>
			<stop  offset="0.4847" style="stop-color:#FAD54A"/>
			<stop  offset="0.5" style="stop-color:#FFDC58"/>
			<stop  offset="0.5" style="stop-color:#FEDA56"/>
			<stop  offset="0.5" style="stop-color:#FCD54F"/>
			<stop  offset="0.5" style="stop-color:#F8CB44"/>
			<stop  offset="0.5" style="stop-color:#F5C239"/>
			<stop  offset="0.5205" style="stop-color:#F0B425"/>
			<stop  offset="0.5465" style="stop-color:#EDA814"/>
			<stop  offset="0.5788" style="stop-color:#EA9F09"/>
			<stop  offset="0.6241" style="stop-color:#E89A02"/>
			<stop  offset="0.75" style="stop-color:#E89900"/>
			<stop  offset="1" style="stop-color:#C17F00"/>
		</linearGradient>
		<path fill="url(#SVGID_2_)" d="M10.5,35.4c-0.6-0.1-1.3,0-1.4,0.1c-0.2,0.2,0.6,0.6,1.2,0.8l44,14.8c0.6,0.2,1.3-0.1,1.6-0.7
			l3.1-7.1c0.3-0.6,0-1.1-0.7-1.2L10.5,35.4z"/>
	</g>
	<g>
		<linearGradient id="SVGID_3_" gradientUnits="userSpaceOnUse" x1="1.3134" y1="19.5192" x2="164.1632" y2="19.5192">
			<stop  offset="0" style="stop-color:#F2AC21"/>
			<stop  offset="0.25" style="stop-color:#EEC125"/>
			<stop  offset="0.3787" style="stop-color:#EFC227"/>
			<stop  offset="0.4251" style="stop-color:#F1C62E"/>
			<stop  offset="0.4581" style="stop-color:#F5CC39"/>
			<stop  offset="0.4847" style="stop-color:#FAD54A"/>
			<stop  offset="0.5" style="stop-color:#FFDC58"/>
			<stop  offset="0.5" style="stop-color:#FEDA56"/>
			<stop  offset="0.5" style="stop-color:#FCD54F"/>
			<stop  offset="0.5" style="stop-color:#F8CB44"/>
			<stop  offset="0.5" style="stop-color:#F5C239"/>
			<stop  offset="0.5205" style="stop-color:#F0B425"/>
			<stop  offset="0.5465" style="stop-color:#EDA814"/>
			<stop  offset="0.5788" style="stop-color:#EA9F09"/>
			<stop  offset="0.6241" style="stop-color:#E89A02"/>
			<stop  offset="0.75" style="stop-color:#E89900"/>
			<stop  offset="1" style="stop-color:#C17F00"/>
		</linearGradient>
		<path fill="url(#SVGID_3_)" d="M93.8,14.4c-0.6,0-0.9,0.5-0.7,1.1l3.6,8.2c0.3,0.6,1,1,1.6,1l62.7-3c0.6,0,1.3-0.5,1.5-1.1l1.7-5
			c0.2-0.6-0.2-1.1-0.8-1.1H93.8z"/>
	</g>
	<g>
		<g>
			<linearGradient id="SVGID_4_" gradientUnits="userSpaceOnUse" x1="0.4495" y1="27.8968" x2="164.1285" y2="27.8968">
				<stop  offset="0" style="stop-color:#F2AC21"/>
				<stop  offset="0.25" style="stop-color:#EEC125"/>
				<stop  offset="0.3787" style="stop-color:#EFC227"/>
				<stop  offset="0.4251" style="stop-color:#F1C62E"/>
				<stop  offset="0.4581" style="stop-color:#F5CC39"/>
				<stop  offset="0.4847" style="stop-color:#FAD54A"/>
				<stop  offset="0.5" style="stop-color:#FFDC58"/>
				<stop  offset="0.5" style="stop-color:#FEDA56"/>
				<stop  offset="0.5" style="stop-color:#FCD54F"/>
				<stop  offset="0.5" style="stop-color:#F8CB44"/>
				<stop  offset="0.5" style="stop-color:#F5C239"/>
				<stop  offset="0.5205" style="stop-color:#F0B425"/>
				<stop  offset="0.5465" style="stop-color:#EDA814"/>
				<stop  offset="0.5788" style="stop-color:#EA9F09"/>
				<stop  offset="0.6241" style="stop-color:#E89A02"/>
				<stop  offset="0.75" style="stop-color:#E89900"/>
				<stop  offset="1" style="stop-color:#C17F00"/>
			</linearGradient>
			<path fill="url(#SVGID_4_)" d="M84.4,2.1c-0.3-0.6-0.9-1.3-1.5-1.6l-1.1,0c-0.6,0.3-1.2,1-1.5,1.6L69.3,26.5c-0.3,0.6-1,1-1.6,1
				L4.5,24.2c-0.6,0-0.9,0.4-0.7,1l2.7,6c0.3,0.6,1,1.1,1.6,1.2l54.4,6.5c0.6,0.1,0.9,0.6,0.7,1.2l-5,11.3c-0.3,0.6,0,1.2,0.6,1.4
				l5,1.5c0.6,0.2,1.1,0.3,1.1,0.3c0,0,0.5,0.1,1.1,0.3l1.5,0.4c0.6,0.2,1.3-0.2,1.5-0.8l4.5-13.2c0.2-0.6,0.9-1,1.5-1l6.2,0.7
				c0.6,0.1,1.7,0.1,2.3,0l5.9-0.6c0.6-0.1,1.3,0.4,1.5,1l4.6,13.2c0.2,0.6,0.9,0.9,1.5,0.7l0.8-0.2c0.6-0.2,1.1-0.3,1.1-0.3
				c0,0,0.5-0.1,1.1-0.3l5.6-1.7c0.6-0.2,0.9-0.8,0.6-1.4l-5-11c-0.3-0.6,0-1.1,0.7-1.2l54.8-6.1c0.6-0.1,1.3-0.6,1.5-1.2l2.4-6.6
				c0.2-0.6-0.1-1.1-0.8-1l-63.1,3.5c-0.6,0-1.4-0.4-1.6-1L84.4,2.1z M83.7,28.3c-0.6,0-1.7,0-2.3,0l-2.2-0.1c-0.6,0-1-0.6-0.8-1.2
				L82,16.2c0.2-0.6,0.4-1.1,0.4-1.1c0,0,0.2,0.5,0.4,1.1L86.4,27c0.2,0.6-0.2,1.1-0.8,1.2L83.7,28.3z"/>
		</g>
	</g>
	<g>
		<linearGradient id="SVGID_5_" gradientUnits="userSpaceOnUse" x1="1.4236" y1="43.0225" x2="164.2936" y2="43.0225">
			<stop  offset="0" style="stop-color:#F2AC21"/>
			<stop  offset="0.25" style="stop-color:#EEC125"/>
			<stop  offset="0.3787" style="stop-color:#EFC227"/>
			<stop  offset="0.4251" style="stop-color:#F1C62E"/>
			<stop  offset="0.4581" style="stop-color:#F5CC39"/>
			<stop  offset="0.4847" style="stop-color:#FAD54A"/>
			<stop  offset="0.5" style="stop-color:#FFDC58"/>
			<stop  offset="0.5" style="stop-color:#FEDA56"/>
			<stop  offset="0.5" style="stop-color:#FCD54F"/>
			<stop  offset="0.5" style="stop-color:#F8CB44"/>
			<stop  offset="0.5" style="stop-color:#F5C239"/>
			<stop  offset="0.5205" style="stop-color:#F0B425"/>
			<stop  offset="0.5465" style="stop-color:#EDA814"/>
			<stop  offset="0.5788" style="stop-color:#EA9F09"/>
			<stop  offset="0.6241" style="stop-color:#E89A02"/>
			<stop  offset="0.75" style="stop-color:#E89900"/>
			<stop  offset="1" style="stop-color:#C17F00"/>
		</linearGradient>
		<path fill="url(#SVGID_5_)" d="M156.2,35.9c-0.2-0.2-0.8-0.2-1.4-0.2l-48,5.6c-0.6,0.1-0.9,0.6-0.7,1.2l3.1,7.1
			c0.3,0.6,1,0.9,1.6,0.7L155,36.6C155.6,36.5,156.4,36,156.2,35.9z"/>
	</g>
</g>
</svg>
