<?xml version="1.0" encoding="utf-8"?>
<!-- Generator: Adobe Illustrator 18.0.0, SVG Export Plug-In . SVG Version: 6.00 Build 0)  -->
<!DOCTYPE svg PUBLIC "-//W3C//DTD SVG 1.1//EN" "http://www.w3.org/Graphics/SVG/1.1/DTD/svg11.dtd">
<svg version="1.1" id="Layer_1" xmlns="http://www.w3.org/2000/svg" xmlns:xlink="http://www.w3.org/1999/xlink" x="0px" y="0px"
	 viewBox="0 0 170.9 77.8" enable-background="new 0 0 170.9 77.8" xml:space="preserve">
<path fill="#BEC8D1" d="M4.9,67.1L0,77.8l1.6,0L3,74.6l5.3,0l1.4,3.2l1.5,0L6.4,67.1L4.9,67.1z M7.6,73.2l-4,0l2-4.4L7.6,73.2z
	 M21.4,67.1l-4.8,10.7H15l-4.8-10.7l1.6,0l4,9l3.9-9L21.4,67.1z M25.3,67.1l-4.9,10.7h1.6l1.4-3.2l5.3,0l1.4,3.2l1.5,0l-4.9-10.7
	L25.3,67.1z M28,73.2l-4,0l2-4.4L28,73.2z M43.3,67.1v10.7l-1.7,0l-6.7-8.7l0,8.7l-1.5,0V67.1l1.6,0l6.8,8.7l0-8.7L43.3,67.1z
	 M55.6,72v5.8l-1.3,0l-0.1-1.4c-0.3,0.4-0.8,0.8-1.2,1.1c-0.7,0.4-1.6,0.6-2.5,0.6l0-0.2l0,0l0,0l0,0V78c-1.6,0-3-0.5-4-1.5
	c-1-1-1.5-2.4-1.5-4.1c0-1.7,0.5-3.1,1.5-4.1c1-1,2.4-1.5,4.1-1.5c1.3,0,2.4,0.3,3.3,1c0.9,0.7,1.4,1.6,1.5,2.7l0,0.3h-1.5l0-0.2
	c-0.2-0.8-0.5-1.3-1.1-1.7c-0.6-0.4-1.3-0.6-2.3-0.6c-1.3,0-2.3,0.4-3,1.1c-0.7,0.7-1.1,1.8-1.1,3c0,1.3,0.4,2.3,1.1,3
	c0.7,0.7,1.7,1.1,2.9,1.1c1,0,1.9-0.3,2.6-0.9c0.7-0.6,1-1.3,1-2.1l0-0.3l-3.2,0V72L55.6,72z M61.9,67.1L57,77.8l1.6,0l1.4-3.2
	l5.3,0l1.4,3.2l1.5,0l-4.9-10.7L61.9,67.1z M64.6,73.1l-4,0l2-4.4L64.6,73.1z M78.9,75.6c0-0.5-0.1-0.8-0.1-1.1
	c-0.1-0.7-0.3-1.2-0.5-1.5c-0.1-0.2-0.3-0.3-0.6-0.4c0.4-0.2,0.6-0.4,0.8-0.7c0.3-0.4,0.5-1,0.5-1.8c0-1-0.3-1.7-1-2.2
	c-0.7-0.5-1.6-0.7-2.9-0.7l-5.1,0l0,10.7l1.5,0l0-4.4l4.1,0c0.6,0,1.1,0.1,1.3,0.3c0.2,0.2,0.4,0.5,0.5,0.9c0,0.2,0.1,0.6,0.1,1.3
	c0,0.7,0.1,1.3,0.3,1.7l0.1,0.2l1.8,0l-0.3-0.4C79.2,77.2,79,76.8,78.9,75.6z M74.9,68.2v0.2c1,0,1.7,0.1,2.1,0.4
	c0.4,0.3,0.5,0.7,0.5,1.3c0,0.6-0.2,1.1-0.5,1.3c-0.4,0.3-1,0.4-2,0.4l-3.5,0l0-3.5l3.4,0L74.9,68.2L74.9,68.2z M90,68
	c-0.5-0.4-1-0.6-1.7-0.8c-0.6-0.1-1.5-0.2-2.7-0.2l-4,0l0,10.7l4,0c1.2,0,2.1-0.1,2.7-0.2c0.6-0.1,1.2-0.4,1.6-0.8
	c0.6-0.5,1-1.1,1.3-1.8c0.3-0.7,0.4-1.6,0.4-2.6c0-1-0.1-1.9-0.4-2.6C91,69.1,90.6,68.5,90,68z M87.7,68.6c0.5,0.1,0.9,0.2,1.2,0.5
	c0.4,0.3,0.8,0.7,1,1.2c0.2,0.5,0.3,1.2,0.3,2c0,0.9-0.1,1.6-0.3,2.1c-0.2,0.5-0.5,0.9-1,1.2c-0.3,0.2-0.7,0.4-1.2,0.5
	c-0.5,0.1-1.2,0.1-2,0.1l-2.5,0l0-7.9l2.2,0l0-0.2l0,0v0.2C86.5,68.4,87.2,68.5,87.7,68.6z M101.5,67l-4.9,10.7l1.6,0l1.4-3.2l5.3,0
	l1.4,3.2l1.5,0L102.9,67L101.5,67z M104.2,73.1l-4,0l2-4.4L104.2,73.1z M116.3,67l1.6,0l-4.8,10.7l-1.6,0L106.8,67h1.6l4,9L116.3,67
	z M121.2,67l0,10.7l-1.5,0l0-10.7L121.2,67z M129.3,67l-1.5,0L123,77.7l1.6,0l1.4-3.2l5.3,0l1.4,3.2l1.5,0l-4.8-10.5L129.3,67z
	 M130.6,73.1l-4,0l2-4.4L130.6,73.1z M143.1,68.4l-3.9,0l0,9.3l-1.5,0l0-9.3l-3.9,0l0-1.4l9.4,0L143.1,68.4z M146.4,67l0,10.7
	l-1.5,0l0-10.7L146.4,67z M153.9,66.7c-1.7,0-3.1,0.5-4.1,1.5c-1,1-1.5,2.4-1.5,4.1c0,1.7,0.5,3.1,1.5,4.1c1,1,2.4,1.5,4.1,1.5h0
	c1.7,0,3.1-0.5,4.1-1.5c1-1,1.5-2.4,1.5-4.1c0-1.7-0.5-3.1-1.5-4.1C157,67.2,155.7,66.7,153.9,66.7z M150.9,69.3
	c0.7-0.7,1.7-1.1,3-1.1l0-0.2l0,0v0.2c1.3,0,2.3,0.4,3,1.1c0.7,0.7,1.1,1.8,1.1,3.1c0,1.3-0.4,2.3-1.1,3.1c-0.7,0.7-1.7,1.1-3,1.1
	c-1.3,0-2.3-0.4-3-1.1c-0.7-0.7-1.1-1.8-1.1-3.1C149.8,71,150.2,70,150.9,69.3z M154,77.7L154,77.7L154,77.7L154,77.7z M169.2,77.6
	l-6.7-8.7l0,8.7l-1.5,0V67l1.6,0l6.8,8.7l0-8.7l1.5,0v10.7H169.2z"/>
<g>
	<g>
		<path fill="#BEC8D1" d="M74.5,15.5c0.3-0.6-0.1-1.1-0.7-1.1H4.2c-0.6,0-1,0.5-0.8,1.1l1.7,5c0.2,0.6,0.9,1.1,1.5,1.1l62.7,3
			c0.6,0,1.4-0.4,1.6-1L74.5,15.5z"/>
	</g>
	<g>
		<path fill="#BEC8D1" d="M13.5,35.4c-0.6-0.1-1.3,0-1.4,0.1c-0.2,0.2,0.6,0.6,1.2,0.8l44,14.8c0.6,0.2,1.3-0.1,1.6-0.7l3.1-7.1
			c0.3-0.6,0-1.1-0.7-1.2L13.5,35.4z"/>
	</g>
	<g>
		<path fill="#BEC8D1" d="M96.9,14.4c-0.6,0-0.9,0.5-0.7,1.1l3.6,8.2c0.3,0.6,1,1,1.6,1l62.7-3c0.6,0,1.3-0.5,1.5-1.1l1.7-5
			c0.2-0.6-0.2-1.1-0.8-1.1H96.9z"/>
	</g>
	<g>
		<g>
			<path fill="#BEC8D1" d="M87.4,2.1c-0.3-0.6-0.9-1.3-1.5-1.6l-1.1,0c-0.6,0.3-1.2,1-1.5,1.6L72.4,26.5c-0.3,0.6-1,1-1.6,1
				L7.6,24.2c-0.6,0-0.9,0.4-0.7,1l2.7,6c0.3,0.6,1,1.1,1.6,1.2l54.4,6.5c0.6,0.1,0.9,0.6,0.7,1.2l-5,11.3c-0.3,0.6,0,1.2,0.6,1.4
				l5,1.5c0.6,0.2,1.1,0.3,1.1,0.3c0,0,0.5,0.1,1.1,0.3l1.5,0.4c0.6,0.2,1.3-0.2,1.5-0.8l4.5-13.2c0.2-0.6,0.9-1,1.5-1l6.2,0.7
				c0.6,0.1,1.7,0.1,2.3,0l5.9-0.6c0.6-0.1,1.3,0.4,1.5,1l4.6,13.2c0.2,0.6,0.9,0.9,1.5,0.7l0.8-0.2c0.6-0.2,1.1-0.3,1.1-0.3
				c0,0,0.5-0.1,1.1-0.3l5.6-1.7c0.6-0.2,0.9-0.8,0.6-1.4l-5-11c-0.3-0.6,0-1.1,0.7-1.2l54.8-6.1c0.6-0.1,1.3-0.6,1.5-1.2l2.4-6.6
				c0.2-0.6-0.1-1.1-0.8-1L100,27.5c-0.6,0-1.4-0.4-1.6-1L87.4,2.1z M85.5,15c0.1,0,0.3,0.3,0.3,0.3c0.3,0.6,0.4,0.7,0.1,0.4
				C85.7,15.3,85.5,15,85.5,15C85.5,15,85.5,15,85.5,15z M85.5,15.1l-0.7,1.1C85.1,15.5,85.3,15.1,85.5,15.1z M86.8,28.3
				c-0.6,0-1.7,0-2.3,0l-2.2-0.1c-0.6,0-1-0.6-0.8-1.2l3.6-10.8c0.2-0.6,0.4-1.1,0.4-1.1s0.2,0.5,0.4,1.1L89.5,27
				c0.2,0.6-0.2,1.1-0.8,1.2L86.8,28.3z"/>
		</g>
	</g>
	<g>
		<path fill="#BEC8D1" d="M159.3,35.9c-0.2-0.2-0.8-0.2-1.4-0.2l-48,5.6c-0.6,0.1-0.9,0.6-0.7,1.2l3.1,7.1c0.3,0.6,1,0.9,1.6,0.7
			L158,36.6C158.6,36.5,159.4,36,159.3,35.9z"/>
	</g>
</g>
</svg>
